<svg  xmlns="http://www.w3.org/2000/svg">
    <symbol id="sheet" viewBox="0 0 16 15.2">
        <path class="st0" d="M2.3,9.3c0,0.2,0.1,0.4,0.1,0.6C2.4,10.7,2.5,12,2.5,12H3C3,12,3,9.9,2.7,8.8c-0.3-1.2-0.4-3.4,0.3-5L2.5,3.6
            c0,0-0.6,1.2-0.6,3.1c0,1.2,0.1,1.7,0.2,2.2C1.7,8.6,0.6,7.6,0.7,5.5C0.9,3.1,3,0.9,3,0.9s3.7,3.5,0.4,7.4l0.4,0.3
            c0,0,1.5-1.7,1.5-3.6c0-1.9-0.8-3.5-2.3-4.8c0,0-2.6,2.5-2.8,5.5C0.1,8.5,2.2,9.5,2.2,9.5L2.3,9.3z"/>
	    <path class="st0" d="M7.5,6.7C3.8,7.8,4,11.4,4.1,12.2c-1.3,1.3-1.9,2.5-1.9,2.5l0.4,0.2c3.8-6.3,9.7-5.1,9.7-5.1V9.3
            c-3.6-0.4-6.1,1-7.8,2.4l0,0C4.4,10.4,5,7.3,8.8,7c4.4-0.1,6.5,2.5,6.5,2.5c-2.3,3.7-4.9,4.2-6.5,4.4C7.1,14.2,5,13,5,13l-0.2,0.4
            c0,0,1.8,1.2,4.1,1c5-0.6,6.9-5,6.9-5C15.3,8.4,11.6,5.7,7.5,6.7z"/>
    </symbol>  

    <symbol id="car" viewBox="0 0 18.2 14.8">
        <path class="st0" d="M2.9,5.7l1-0.8c0,0,0.1,0,0.1,0c0.3,0,0.5-0.2,0.5-0.5c0-0.2-0.1-0.3-0.2-0.4V1.9H3.8V4
		    C3.6,4.1,3.5,4.2,3.5,4.4c0,0,0,0.1,0,0.1l-1,0.8L2.9,5.7z"/>
	    <path class="st0" d="M18.1,11.1V7.9c0-1-0.4-1.4-0.4-1.4s-1-1.3-1.6-2.1s-1.4-0.8-1.4-0.8h-3.4V3.1c0-0.7-0.5-1.2-1.2-1.2H7.2
            C6.5,0.9,5.3,0.2,4,0.2C1.8,0.2,0.1,2,0.1,4.2c0,0.9,0.3,1.7,0.8,2.4V11c0,0.7,0.5,1.2,1.2,1.2h0.5c0,0,0,0.1,0,0.1
            c0,1.2,1,2.2,2.2,2.2c1.2,0,2.2-1,2.2-2.2c0-0.1,0-0.1,0-0.1H10h0.1c0.3,0,1,0,1.9,0c0,0,0,0.1,0,0.1c0,1.2,1,2.2,2.2,2.2
            c1.2,0,2.2-1,2.2-2.2c0-0.1,0-0.1,0-0.1c0.1,0,0.2,0,0.2,0C18.3,12.3,18.1,11.1,18.1,11.1z M17.6,7.6c0,0,0,0.1,0,0.3h-3.9
            c-0.2,0-0.4-0.2-0.4-0.4V5.9c0-0.2,0.2-0.4,0.4-0.4h2.6c0.3,0.3,0.6,0.7,0.8,1C17.6,7.1,17.6,7.6,17.6,7.6z M4,0.8
            c1.9,0,3.5,1.5,3.5,3.5S5.9,7.7,4,7.7S0.6,6.1,0.6,4.2S2.1,0.8,4,0.8z M4.7,14c-0.9,0-1.6-0.7-1.6-1.6s0.7-1.6,1.6-1.6
            s1.6,0.7,1.6,1.6S5.6,14,4.7,14z M6.7,11.7c-0.3-0.8-1.1-1.5-2-1.5c-0.9,0-1.7,0.6-2,1.5H2c-0.3,0-0.6-0.3-0.6-0.6V7.1
            c0.7,0.6,1.6,1,2.6,1c2.2,0,3.9-1.8,3.9-3.9c0-0.6-0.2-1.2-0.4-1.7h2.6c0.3,0,0.6,0.3,0.6,0.6v8c0,0.3-0.3,0.6-0.6,0.6H6.7z
            M14.1,14c-0.9,0-1.6-0.7-1.6-1.6s0.7-1.6,1.6-1.6s1.6,0.7,1.6,1.6S15,14,14.1,14z M16.6,11.8h-0.4c-0.3-0.9-1.1-1.5-2-1.5
            c-1,0-1.8,0.6-2,1.5h-1c0.2-0.2,0.3-0.4,0.3-0.7V4c0,0,2.2,0,3.1,0c0.9,0,1.3,0.6,1.3,0.6S15.8,4.8,16,5h-2.3
            c-0.5,0-0.8,0.4-0.8,0.8v1.6c0,0.5,0.4,0.8,0.8,0.8h4c0,0.8,0,2,0,2.6C17.6,11.9,16.6,11.8,16.6,11.8z"/>
    </symbol> 

    <symbol id="ribbon" viewBox="0 0 15.2 15.2">
            <path class="st0" d="M4.3,3c0,0.2,0.4,0.4,1,0.4c0.6,0,1-0.2,1-0.4c0-0.2-0.4-0.4-1-0.4C4.8,2.6,4.3,2.7,4.3,3z"/>
            <path class="st0" d="M15.1,6.7c0-1-0.8-1.8-1.8-1.8h-0.4v0H4.1c0,0-2.4,0.1-3.5-1.8c0.1-1.4,1.2-2.4,2.6-2.4h4
                c1.5,0,2.6,1.2,2.6,2.6v0.5h0.5V3.4c0-1.8-1.4-3.2-3.2-3.2H3.3c-1.8,0-3.2,1.4-3.2,3.2v1.3v0.2v3.2c0,1.8,1.4,3.2,3.2,3.2H4v-0.5
                H3.2c-1.5,0-2.6-1.2-2.6-2.6V4.9V4.7V4C0.9,4.4,1.9,5.4,4,5.4c3,0,8.8,0,8.8,0h0.5c0.7,0,1.2,0.5,1.2,1.2v0.6v0.2
                c0,0.7-0.5,1.2-1.2,1.2h-0.1v0H6.9c-1,0-1.8,0.8-1.8,1.8v2.7c0,1,0.8,1.8,1.8,1.8h6.4c1,0,1.8-0.8,1.8-1.8v-2.7c0,0,0-2.4,0-3.1
                c0,0,0,0,0-0.1V6.7z M14.5,13.3c0,0.7-0.5,1.2-1.2,1.2H6.8c-0.7,0-1.2-0.5-1.2-1.2v-2.9c0-0.7,0.5-1.2,1.2-1.2h1.9v1.7h0.5V9.2h2.3
                v0h0.9v1.7h0.5V9.2h0.4c0.5,0,1-0.2,1.3-0.5V13.3z"/>
    </symbol>

    <symbol id="man" viewBox="0 0 18.8 20">
        <path class="st0" d="M17.4,5.8c0.2-0.2,0.4-0.4,0.5-0.6c0.7-0.9,0.6-1.3-0.1-1.9S16,3.6,16,3.6s-0.1,0.1-0.2,0.2
            c-1.1-1-2.5-1.8-4.1-2.2c-0.6-0.9-1.5-1.5-2.5-1.5c-1.1,0-2,0.7-2.6,1.6c-1.3,0.4-2.5,1.1-3.5,2C2.9,3.6,2.5,3.2,2,3.1
            C1.3,3,0.6,3.5,0.5,4.2c0,0.4,0.4,1,0.9,1.6C0.5,7.2,0,8.8,0,10.6c0,5.1,4.2,9.3,9.4,9.3c1.8,0,3.6-0.5,5-1.4l-0.3-0.7c0,0,0,0,0,0
            c-1.3-3.3-1-5.4-0.9-6.4c0.3-1.1,1.4-2.6,2-3.4c0.4-0.5,1-1,1.6-1.6C17.6,7.6,18,9,18,10.6c0,2.3-1,4.4-2.5,6l0.6,0.5
            c1.7-1.7,2.7-4,2.7-6.5C18.8,8.8,18.3,7.2,17.4,5.8z M9.2,0.9c1.3,0,2.3,1.2,2.3,2.7s-1,2.7-2.3,2.7S6.9,5.2,6.9,3.6
            S7.9,0.9,9.2,0.9z M9.2,7.1c1.7,0,3.1-1.6,3.1-3.5c0-0.4-0.1-0.7-0.2-1.1c1.2,0.4,2.2,1,3.1,1.8c-0.8,0.7-2,1.6-2.6,2
            C11.7,7,10.2,7.7,9,7.7c-1.2,0-1.8-0.5-2.7-0.9C5.5,6.4,4.2,4.9,3.6,4.3c0.8-0.7,1.7-1.2,2.6-1.6C6.2,3,6.1,3.3,6.1,3.6
            C6.1,5.6,7.5,7.1,9.2,7.1z M0.8,10.6c0-1.5,0.4-2.9,1.1-4.2c0.2,0.2,0.3,0.3,0.3,0.3s2.5,2.9,3,3.6c0.5,0.7-0.1,1.2-0.5,3
            c-0.3,1.4-0.3,3.3-0.3,4.2C2.2,15.9,0.8,13.4,0.8,10.6z M16.3,5.8c-0.4,0.4-1.8,1.6-3,3.5c-1.2,1.9-1,3.4-0.9,4.5
            c0.1,1.1,0.4,2.1,0.5,2.5c0.1,0.3,0.5,1.4,0.6,1.7c-1.2,0.6-2.6,1-4,1c-1.6,0-3-0.4-4.3-1.1c0-3.4,0.2-3.9,0.3-4.4
            C5.5,13,5.8,12,6.1,11.2C6.3,10.5,6,9.9,5.7,9.6C5.4,9.3,2.5,5.8,2,5.1c-0.6-0.7-0.7-1-0.2-1.2c0.5-0.3,1.8,1.3,2.4,2
            c0.5,0.7,2.8,2.6,4.9,2.5s3.6-1.2,4.2-1.6c0.5-0.4,3.1-2.5,3.5-2.8c0.4-0.3,0.9,0,0.8,0.3C17.5,4.6,16.7,5.4,16.3,5.8z"/>
    </symbol >

    <symbol id="small" viewBox="0 0 20.6 20.8">
        <path class="st0" d="M10.3,0.2C4.7,0.2,0.1,4.8,0.1,10.4c0,5.6,4.6,10.2,10.2,10.2c5.6,0,10.2-4.6,10.2-10.2
            C20.5,4.8,15.9,0.2,10.3,0.2z M10.3,19.8c-5.2,0-9.4-4.2-9.4-9.4C0.9,5.2,5.1,1,10.3,1s9.4,4.2,9.4,9.4
            C19.7,15.6,15.5,19.8,10.3,19.8z"/>
        <path class="st0" d="M10.3,15.7c-3.5,0-5.6-3.1-5.6-3.1L4,13.1c2.8,3.6,6.3,3.5,6.3,3.5s3.5,0.2,6.3-3.5l-0.7-0.5
            C15.9,12.6,13.8,15.7,10.3,15.7z"/>
        <path class="st0" d="M6.9,11.5C9.3,10.4,9.7,9,9.7,8.3c0-0.8-0.5-1.7-1.4-1.7c-1,0-1.4,0.5-1.4,0.5S6.5,6.6,5.5,6.6
            c-0.9,0-1.4,1-1.4,1.7C4.1,9,4.5,10.4,6.9,11.5z M6.9,8.1c0.5-0.8,1.9-0.9,2,0.1c0,1.4-2,2.4-2,2.4s-2-1-2-2.4
            C5,7.2,6.4,7.3,6.9,8.1z"/>
        <path class="st0" d="M13.7,11.5c2.4-1.1,2.8-2.5,2.8-3.1c0-0.8-0.5-1.7-1.4-1.7c-1,0-1.4,0.5-1.4,0.5s-0.4-0.5-1.4-0.5
            c-0.9,0-1.4,1-1.4,1.7C10.9,9,11.3,10.4,13.7,11.5z M13.7,8.1c0.5-0.8,1.9-0.9,2,0.1c0,1.4-2,2.4-2,2.4s-2-1-2-2.4
            C11.8,7.2,13.2,7.3,13.7,8.1z"/>
    </symbol>

    <symbol id="arm" viewBox="0 0 22.3 18.9"> 
        <path class="st0" d="M17.4,3.1c-2.1,0-4.8,1.5-4.7,4.6c0,0-4.1-1.3-5.3,3c0,0-0.7-1.5-1.6-2.2C4.8,7.8,3.6,6,3.5,5.1
            c0.1-0.5,0.2-0.5,0.4-0.6c0.1,0,0.1,0.8,1,0.9c0.8-0.1,1-0.3,1.3-0.7l0.9-1c0,0,0.9-1.2,0.1-1.8C6.5,1.2,5.2-0.1,3.6,0.2
            C2.7,0.4,2,1.1,2,1.1L0.8,2.2C0.8,2.2,0,3,0,4.6c0,1.4,0.3,3.7,0.3,3.7s0.3,1.8,0.4,2.4c0.1,0.6,0.9,4.1,2.8,6
            c1.2,1.4,1.9,2,2.5,2.1c1,0,1.5-0.6,2.3-0.6c0.8,0,1.6,0.6,3.3,0.6s5.5-1,7.1-5.9c1.5-0.6,3.6-1.7,3.6-5C22.3,4.6,19.4,3.1,17.4,3.1
            z M18.1,12.3c-1.1,4.4-4.6,5.6-6.3,5.8c-1.6,0-2.5-0.6-3.7-0.6c-0.7,0-1.7,0.6-2,0.6s-1.1-0.7-2.1-1.8s-1.4-2.1-1.8-2.9
            c-0.4-0.8-1.1-4-1.1-4S0.8,6.2,0.8,4.8c0-1.3,0.6-2.1,0.6-2.1S2.2,2,3,1.3c0.9-0.7,2-0.2,2-0.2s1.1,0.7,1.5,1.1c0.5,0.4,0,0.8,0,0.8
            S5.4,4.4,5,4.5C4.5,4.6,4.4,3.4,4.4,3.4C3.9,3.6,3.1,3.8,2.8,4.7C2.5,5.8,4.1,8.1,5.3,9.2c1.1,1.1,1.8,2.9,1.8,2.9L8,11.8
            c0,0-0.1-2.1,1.7-3.2c2-1.1,3.8,0.4,3.8,0.4c-0.6-5,3.8-5.1,4.1-5.1s3.8,0.3,4.1,3.8C21.5,11.7,18.1,12.3,18.1,12.3z"/>
    </symbol>

    <symbol id="chocolate-bar" viewBox="0 0 442.326 442.326">
        <path d="M430.024,68.87l-56.568-56.568C365.523,4.369,354.976,0,343.757,0c-11.218,0-21.766,4.369-29.699,12.302
            c-8.292,8.293-12.54,19.4-12.3,30.598c-11.214-0.246-22.305,4.009-30.597,12.301c-8.293,8.293-12.542,19.399-12.3,30.598
            c-11.206-0.274-22.305,4.008-30.598,12.3c-8.292,8.293-12.54,19.4-12.3,30.597c-11.214-0.228-22.305,4.008-30.597,12.301h-0.001
            L45.358,281.003c-0.008,0.008-0.015,0.016-0.023,0.023L3.056,323.304c-1.168,1.126-2.077,2.551-2.594,4.2
            c-0.049,0.156-0.094,0.313-0.135,0.471c-0.599,2.289-0.352,4.608,0.553,6.621c0.001,0.002,0.002,0.005,0.003,0.008l0.002,0.003
            c0.214,0.475,0.463,0.93,0.746,1.362c1.262,1.933,3.195,3.441,5.583,4.135c0.003,0,0.012,0.004,0.019,0.005
            c0.01,0.005,0.016,0.006,0.023,0.007l34.258,9.789l9.789,34.258c0.949,3.322,3.546,5.919,6.868,6.868l34.254,9.785l9.787,34.255
            c0.002,0.008,0.004,0.016,0.006,0.022c0.001,0.003,0.002,0.007,0.003,0.01c0.001,0.004,0.002,0.009,0.003,0.013
            c0.001,0.004,0.002,0.009,0.004,0.013l0.001,0.005c0.703,2.402,2.229,4.341,4.182,5.598c0.399,0.257,0.818,0.486,1.254,0.686
            c0.004,0.001,0.008,0.003,0.012,0.005c1.284,0.586,2.694,0.904,4.144,0.904c0.909,0,1.834-0.125,2.752-0.388
            c1.757-0.502,3.269-1.443,4.451-2.671l42.276-42.276c0.008-0.007,0.016-0.015,0.023-0.023l60.658-60.658
            c1.163,1.162,2.613,2.041,4.247,2.522c3.51,1.034,7.307,0.066,9.895-2.522l72.278-72.278c3.905-3.905,3.905-10.237,0-14.143
            l-0.85-0.85c4.17-6.869,6.249-14.751,6.08-22.677c11.19,0.233,22.304-4.008,30.597-12.3c8.293-8.293,12.542-19.399,12.3-30.598
            c11.2,0.261,22.305-4.008,30.598-12.3c8.293-8.293,12.542-19.4,12.3-30.598c11.205,0.209,22.305-4.009,30.597-12.301
            c7.933-7.933,12.302-18.479,12.302-29.698C442.326,87.351,437.957,76.804,430.024,68.87z M116.773,413.234l-6.644-23.255
            c-0.949-3.322-3.546-5.919-6.868-6.868l-34.254-9.785l-9.789-34.258c-0.949-3.322-3.546-5.919-6.868-6.868l-23.259-6.646
            l23.338-23.338l87.681,87.682L116.773,413.234z M234.953,309.196L211.46,200.459c-1.167-5.398-6.488-8.825-11.886-7.662
            c-5.398,1.166-8.829,6.488-7.663,11.886l23.703,109.71l-61.362,61.362l-87.681-87.681l125.865-125.865l94.752,94.752h0
            L234.953,309.196z M415.883,114.125c-6.691,6.689-16.878,8.355-25.349,4.145c-3.847-1.914-8.485-1.155-11.523,1.883
            s-3.795,7.677-1.883,11.523c4.211,8.471,2.546,18.657-4.144,25.348c-6.69,6.691-16.876,8.355-25.348,4.144
            c-3.847-1.913-8.486-1.155-11.523,1.883c-3.038,3.038-3.796,7.677-1.883,11.523c4.211,8.471,2.546,18.657-4.144,25.348
            c-6.69,6.69-16.878,8.355-25.348,4.144c-3.846-1.913-8.485-1.155-11.523,1.883c-3.038,3.038-3.795,7.677-1.883,11.523
            c2.626,5.281,2.967,11.229,1.231,16.581l-84.289-84.289c5.351-1.736,11.3-1.395,16.58,1.231c3.848,1.913,8.485,1.155,11.523-1.883
            s3.796-7.677,1.883-11.523c-4.212-8.471-2.546-18.657,4.144-25.348c6.69-6.691,16.876-8.356,25.348-4.143
            c3.847,1.914,8.486,1.154,11.523-1.883c3.038-3.038,3.796-7.677,1.883-11.523c-4.211-8.471-2.546-18.657,4.144-25.349
            c6.691-6.689,16.878-8.355,25.348-4.144c3.846,1.912,8.485,1.155,11.523-1.883c3.038-3.038,3.795-7.677,1.883-11.523
            c-4.212-8.471-2.547-18.657,4.144-25.348c4.155-4.155,9.68-6.444,15.556-6.444c5.876,0,11.401,2.289,15.556,6.444l56.569,56.568
            c4.155,4.155,6.444,9.68,6.444,15.557C422.326,104.445,420.037,109.97,415.883,114.125z"/>
    </symbol>
</svg>