<svg  xmlns="http://www.w3.org/2000/svg">
    <symbol id="close" viewBox="0 0 18 18">
        <path class="st0" d="M12.2,9l5.2-5.2c0.8-0.8,0.8-2,0-2.7l-0.4-0.4c-0.8-0.8-2-0.8-2.7,0L9,5.8L3.8,0.6C3-0.2,1.8-0.2,1,0.6L0.6,1
        c-0.8,0.8-0.8,2,0,2.7L5.8,9l-5.2,5.2c-0.8,0.8-0.8,2,0,2.7L1,17.4c0.8,0.8,2,0.8,2.7,0L9,12.2l5.2,5.2c0.8,0.8,2,0.8,2.7,0l0.4-0.4
        c0.8-0.8,0.8-2,0-2.7L12.2,9z"/>
    </symbol>

    <symbol id="arrow" viewBox="0 0 14.2 25.5">
        <polygon class="st0" points="14.2,12.7 1.5,0 0,1.5 11.3,12.7 0,24 1.5,25.5 14.2,12.7 14.2,12.7 "/>
    </symbol>
</svg>